
<svg version="1.1" xmlns="http://www.w3.org/2000/svg" xmlns:xlink="http://www.w3.org/1999/xlink" x="0px" y="0px" viewBox="0 0 1000 1000" enable-background="new 0 0 1000 1000" xml:space="preserve">

<g><path d="M583.1,10l-86.4,298.1l89.4,26.1l86.6-298.3L583.1,10z M392.8,665.8l-86.6,298.1l89.6,26.1l86.4-298.1L392.8,665.8z M990,613.1l-298.1-86.6l-26.1,89.4l298.3,86.6L990,613.1z M334.2,422.6L36.1,335.9L10,425.5L308.1,512L334.2,422.6z M916.3,205.8L639.7,357.7l45.7,83.1L962,288.7L916.3,205.8z M307.9,540.2L31.6,692.3l45.7,83.1l276.4-152.1L307.9,540.2z M775.4,931.6L623.3,655l-83.1,45.7l152.1,276.4L775.4,931.6z M440.8,323.2L288.7,46.7l-82.9,45.7l151.9,276.6L440.8,323.2z"/></g>
</svg>